# xmcd
#
# Track frame offsets: 
#        150
#        19200
#        50550
#        69075
#        89575
#        102600
#        124050
#        142200
#        158475
#        179775
#        193425
#        209175
#        223350
#
# Disc length: 3206 seconds
#
# Revision: 3
# Processed by: cddbd v1.5PL3 Copyright (c) Steve Scherf et al.
# Submitted via: ExactAudioCopy v0.95a4
#
DISCID=dc0c840d
DTITLE=Various Artist - Samba De Carneval De Brasil
DYEAR=1989
DGENRE=Samba
TTITLE0=Brazil Nao Seremos Jamais, Du Seremos?-Caprichoso De Pilares
TTITLE1=Festejando-Caprichoso De Pilares
TTITLE2=Assambraco-Uniao Da Ilha Do Governador
TTITLE3=Prato Da Nolte-Estacio De Sa
TTITLE4=Blues Para Emmett-Toquinho and Vinicius De Moraes
TTITLE5=Viva Meu Samba-Banda Do Carneval
TTITLE6=Pouca Saude, Muita Sauva, Os Males Do Brasil Sao!-Sao Clemente
TTITLE7=No Ano Da Copa Bota No Melo-Unidos De Lucas
TTITLE8=Tem Que Se Tirar Da Cabeca O Que Nao Temos No Balso-Acadenmico
TTITLE8=s Do Salguetro
TTITLE9=Cass De Samba-Banda Do Carneval
TTITLE10=Cama, Mesa, E Banho De Gato-Unido Da Tijuca
TTITLE11=Maria Biana Maria Al Que Saudade De Amelia E Priciso Muito Am
TTITLE11=or-Banda Do Carneval
TTITLE12=Ganga Zumba Raiz De Liberdade-Academicos Do Engenho Da Rainha
EXTD=YEAR: 1989
EXTT0=Caprichoso De Pilares
EXTT1=Caprichoso De Pilares
EXTT2=Uniao Da Ilha Do Governador
EXTT3=Estacio De Sa
EXTT4=Toquinho and Vinicius
EXTT5=Banda Do Carneval
EXTT6=Sao Clemente
EXTT7=Unidos De Lucas
EXTT8=ACadenmicos Do Salguetro
EXTT9=Banda Do Carneval
EXTT10=Unido Da Tijuca
EXTT11=Banda Do Carneval
EXTT12=ACademicos Do Engenho Da Rainha
PLAYORDER=
